<?xml version="1.0" encoding="UTF-8" standalone="no"?>
<!-- Created with Inkscape (http://www.inkscape.org/) -->

<svg
   xmlns:dc="http://purl.org/dc/elements/1.1/"
   xmlns:cc="http://creativecommons.org/ns#"
   xmlns:rdf="http://www.w3.org/1999/02/22-rdf-syntax-ns#"
   xmlns:svg="http://www.w3.org/2000/svg"
   xmlns="http://www.w3.org/2000/svg"
   xmlns:sodipodi="http://sodipodi.sourceforge.net/DTD/sodipodi-0.dtd"
   xmlns:inkscape="http://www.inkscape.org/namespaces/inkscape"
   width="180.74535"
   height="265.09317"
   id="svg3495"
   version="1.1"
   inkscape:version="0.48.0 r9654"
   sodipodi:docname="New document 21">
  <defs
     id="defs3497" />
  <sodipodi:namedview
     id="base"
     pagecolor="#ffffff"
     bordercolor="#666666"
     borderopacity="1.0"
     inkscape:pageopacity="0.0"
     inkscape:pageshadow="2"
     inkscape:zoom="0.35"
     inkscape:cx="90.372681"
     inkscape:cy="132.5466"
     inkscape:document-units="px"
     inkscape:current-layer="layer1"
     showgrid="false"
     fit-margin-top="0"
     fit-margin-left="0"
     fit-margin-right="0"
     fit-margin-bottom="0"
     inkscape:window-width="495"
     inkscape:window-height="446"
     inkscape:window-x="783"
     inkscape:window-y="300"
     inkscape:window-maximized="0" />
  <metadata
     id="metadata3500">
    <rdf:RDF>
      <cc:Work
         rdf:about="">
        <dc:format>image/svg+xml</dc:format>
        <dc:type
           rdf:resource="http://purl.org/dc/dcmitype/StillImage" />
        <dc:title></dc:title>
      </cc:Work>
    </rdf:RDF>
  </metadata>
  <g
     inkscape:label="Layer 1"
     inkscape:groupmode="layer"
     id="layer1"
     transform="translate(-284.62732,-399.81561)">
    <rect
       ry="12.049689"
       rx="11.296584"
       y="399.81561"
       x="284.62732"
       height="265.09317"
       width="180.74535"
       id="rect4361"
       style="fill:#cccccc;fill-opacity:1;stroke:none" />
    <path
       style="fill:#b3b3b3;fill-opacity:1;stroke:none"
       d="m 320.7764,475.12615 c -5.00665,0 -9.03727,4.03062 -9.03727,9.03727 l 0,96.39752 c 0,5.00665 4.03062,9.03727 9.03727,9.03727 l 108.4472,0 c 5.00665,0 9.03727,-4.03062 9.03727,-9.03727 l 0,-96.39752 c 0,-5.00665 -4.03062,-9.03727 -9.03727,-9.03727 z m 0.30124,6.02484 c 0.10151,-0.0102 0.19693,0 0.30124,0 l 11.44721,0 c 1.66888,0 3.01242,1.34354 3.01242,3.01243 l 0,9.03726 c 0,1.66888 -1.34354,3.01242 -3.01242,3.01242 l -11.44721,0 c -1.66888,0 -3.01242,-1.34354 -3.01242,-3.01242 l 0,-9.03726 c 0,-1.56458 1.18846,-2.85871 2.71118,-3.01243 z m 24.09938,0 c 0.10151,-0.0102 0.19694,0 0.30124,0 l 11.44721,0 c 1.66888,0 3.01242,1.34354 3.01242,3.01243 l 0,9.03726 c 0,1.66888 -1.34354,3.01242 -3.01242,3.01242 l -11.44721,0 c -1.66888,0 -3.01242,-1.34354 -3.01242,-3.01242 l 0,-9.03726 c 0,-1.56458 1.18846,-2.85871 2.71118,-3.01243 z m 24.09938,0 c 0.10151,-0.0102 0.19694,0 0.30124,0 l 11.4472,0 c 1.66889,0 3.01243,1.34354 3.01243,3.01243 l 0,9.03726 c 0,1.66888 -1.34354,3.01242 -3.01243,3.01242 l -11.4472,0 c -1.66888,0 -3.01242,-1.34354 -3.01242,-3.01242 l 0,-9.03726 c 0,-1.56458 1.18846,-2.85871 2.71118,-3.01243 z m 24.09938,0 c 0.10151,-0.0102 0.19694,0 0.30124,0 l 11.4472,0 c 1.66888,0 3.01243,1.34354 3.01243,3.01243 l 0,9.03726 c 0,1.66888 -1.34355,3.01242 -3.01243,3.01242 l -11.4472,0 c -1.66888,0 -3.01242,-1.34354 -3.01242,-3.01242 l 0,-9.03726 c 0,-1.56458 1.18846,-2.85871 2.71118,-3.01243 z m 24.09937,0 c 0.10152,-0.0102 0.19694,0 0.30125,0 l 11.4472,0 c 1.66888,0 3.01242,1.34354 3.01242,3.01243 l 0,9.03726 c 0,1.66888 -1.34354,3.01242 -3.01242,3.01242 l -11.4472,0 c -1.66889,0 -3.01243,-1.34354 -3.01243,-3.01242 l 0,-9.03726 c 0,-1.56458 1.18847,-2.85871 2.71118,-3.01243 z m -97,87.36026 c 0.10152,-0.0102 0.19694,0 0.30125,0 l 11.4472,0 c 1.66888,0 3.01242,1.34354 3.01242,3.01242 l 0,9.03727 c 0,1.66888 -1.34354,3.01242 -3.01242,3.01242 l -11.4472,0 c -1.66888,0 -3.01243,-1.34354 -3.01243,-3.01242 l 0,-9.03727 c 0,-1.56458 1.18847,-2.8587 2.71118,-3.01242 z m 24.09938,0 c 0.10152,-0.0102 0.19694,0 0.30125,0 l 11.4472,0 c 1.66888,0 3.01242,1.34354 3.01242,3.01242 l 0,9.03727 c 0,1.66888 -1.34354,3.01242 -3.01242,3.01242 l -11.4472,0 c -1.66889,0 -3.01243,-1.34354 -3.01243,-3.01242 l 0,-9.03727 c 0,-1.56458 1.18846,-2.8587 2.71118,-3.01242 z m 24.09938,0 c 0.10152,-0.0102 0.19694,0 0.30124,0 l 11.44721,0 c 1.66888,0 3.01242,1.34354 3.01242,3.01242 l 0,9.03727 c 0,1.66888 -1.34354,3.01242 -3.01242,3.01242 l -11.44721,0 c -1.66888,0 -3.01242,-1.34354 -3.01242,-3.01242 l 0,-9.03727 c 0,-1.56458 1.18846,-2.8587 2.71118,-3.01242 z m 24.09938,0 c 0.10151,-0.0102 0.19694,0 0.30124,0 l 11.44721,0 c 1.66888,0 3.01242,1.34354 3.01242,3.01242 l 0,9.03727 c 0,1.66888 -1.34354,3.01242 -3.01242,3.01242 l -11.44721,0 c -1.66888,0 -3.01242,-1.34354 -3.01242,-3.01242 l 0,-9.03727 c 0,-1.56458 1.18846,-2.8587 2.71118,-3.01242 z m 24.09938,0 c 0.10151,-0.0102 0.19694,0 0.30124,0 l 11.44721,0 c 1.66888,0 3.01242,1.34354 3.01242,3.01242 l 0,9.03727 c 0,1.66888 -1.34354,3.01242 -3.01242,3.01242 l -11.44721,0 c -1.66888,0 -3.01242,-1.34354 -3.01242,-3.01242 l 0,-9.03727 c 0,-1.56458 1.18846,-2.8587 2.71118,-3.01242 z"
       id="path4342"
       inkscape:connector-curvature="0"
       sodipodi:nodetypes="ssssssssscssssssssccssssssssccssssssssccssssssssccssssssssccssssssssccssssssssccssssssssccssssssssccssssssssc" />
  </g>
</svg>
