<?xml version="1.0" encoding="UTF-8" standalone="no"?>
<!-- Created with Inkscape (http://www.inkscape.org/) -->

<svg
   xmlns:dc="http://purl.org/dc/elements/1.1/"
   xmlns:cc="http://creativecommons.org/ns#"
   xmlns:rdf="http://www.w3.org/1999/02/22-rdf-syntax-ns#"
   xmlns:svg="http://www.w3.org/2000/svg"
   xmlns="http://www.w3.org/2000/svg"
   xmlns:sodipodi="http://sodipodi.sourceforge.net/DTD/sodipodi-0.dtd"
   xmlns:inkscape="http://www.inkscape.org/namespaces/inkscape"
   width="180.74535"
   height="265.09317"
   id="svg3282"
   version="1.1"
   inkscape:version="0.48.0 r9654"
   sodipodi:docname="New document 12">
  <defs
     id="defs3284" />
  <sodipodi:namedview
     id="base"
     pagecolor="#ffffff"
     bordercolor="#666666"
     borderopacity="1.0"
     inkscape:pageopacity="0.0"
     inkscape:pageshadow="2"
     inkscape:zoom="0.35"
     inkscape:cx="276.8012"
     inkscape:cy="-170.31056"
     inkscape:document-units="px"
     inkscape:current-layer="layer1"
     showgrid="false"
     fit-margin-top="0"
     fit-margin-left="0"
     fit-margin-right="0"
     fit-margin-bottom="0"
     inkscape:window-width="1280"
     inkscape:window-height="723"
     inkscape:window-x="0"
     inkscape:window-y="24"
     inkscape:window-maximized="1" />
  <metadata
     id="metadata3287">
    <rdf:RDF>
      <cc:Work
         rdf:about="">
        <dc:format>image/svg+xml</dc:format>
        <dc:type
           rdf:resource="http://purl.org/dc/dcmitype/StillImage" />
        <dc:title></dc:title>
      </cc:Work>
    </rdf:RDF>
  </metadata>
  <g
     inkscape:label="Layer 1"
     inkscape:groupmode="layer"
     id="layer1"
     transform="translate(-98.198799,-96.95845)">
    <rect
       style="fill:#cccccc;fill-opacity:1;stroke:none"
       id="rect4367"
       width="180.74535"
       height="265.09317"
       x="98.198799"
       y="96.95845"
       rx="11.296584"
       ry="12.049689" />
    <path
       style="fill:#b3b3b3;stroke:none"
       d="m 186.86571,166.83907 c -41.3249,1.44036 -17.7347,63.99668 -13.139,69.27517 0.5153,10.96274 -40.0318,19.32487 -46.1383,25.46726 -6.1065,6.14245 -5.2015,23.71097 -5.2015,23.71097 44.9682,12.54846 112.0541,6.49041 132.3691,0 0,0 0.905,-17.56852 -5.2016,-23.71097 -6.1065,-6.14239 -46.6536,-14.50452 -46.1383,-25.46726 4.6452,-5.33524 28.6677,-69.16209 -14.5238,-69.27517 -0.2182,0 -0.4269,-4.2e-4 -0.6418,0 -0.4636,0 -0.9365,-0.0151 -1.3848,0 z"
       id="path3484"
       inkscape:connector-curvature="0"
       sodipodi:nodetypes="ccsccscccc" />
  </g>
</svg>
